<?xml version="1.0" encoding="UTF-8" standalone="no"?>
<svg
   xmlns:dc="http://purl.org/dc/elements/1.1/"
   xmlns:cc="http://creativecommons.org/ns#"
   xmlns:rdf="http://www.w3.org/1999/02/22-rdf-syntax-ns#"
   xmlns:svg="http://www.w3.org/2000/svg"
   xmlns="http://www.w3.org/2000/svg"
   xmlns:sodipodi="http://sodipodi.sourceforge.net/DTD/sodipodi-0.dtd"
   xmlns:inkscape="http://www.inkscape.org/namespaces/inkscape"
   xml:space="preserve"
   enable-background="new 0 0 185 188"
   viewBox="0 0 180.67317 60"
   height="60"
   width="180.67317"
   y="0px"
   x="0px"
   id="Layer_1"
   version="1.1"
   sodipodi:docname="logo.svg"
   inkscape:version="0.92.4 (5da689c313, 2019-01-14)"
   inkscape:export-filename="C:\Users\adish\Work\Fun\CoreC++\zeppelin\img\seo\sharing-twitter.png"
   inkscape:export-xdpi="148.78"
   inkscape:export-ydpi="148.78"><sodipodi:namedview
   pagecolor="#ffffff"
   bordercolor="#666666"
   borderopacity="1"
   objecttolerance="10"
   gridtolerance="10"
   guidetolerance="10"
   inkscape:pageopacity="0"
   inkscape:pageshadow="2"
   inkscape:window-width="1920"
   inkscape:window-height="1137"
   id="namedview79"
   showgrid="false"
   inkscape:zoom="8.230331"
   inkscape:cx="90.336586"
   inkscape:cy="30"
   inkscape:window-x="-8"
   inkscape:window-y="309"
   inkscape:window-maximized="1"
   inkscape:current-layer="Layer_1" /><metadata
   id="metadata235"><rdf:RDF><cc:Work
       rdf:about=""><dc:format>image/svg+xml</dc:format><dc:type
         rdf:resource="http://purl.org/dc/dcmitype/StillImage" /><dc:title /></cc:Work></rdf:RDF></metadata><defs
   id="defs233">
	
	
	
	
		<radialGradient
   id="SVGID_1_"
   cx="-310.58301"
   cy="-60.055"
   r="20.113701"
   gradientTransform="matrix(0.498,0,0,0.498,172.2891,79.7388)"
   gradientUnits="userSpaceOnUse">
		<stop
   offset="0"
   style="stop-color:#FFCF4F"
   id="stop48" />
		<stop
   offset="1"
   style="stop-color:#F4C236"
   id="stop50" />
	</radialGradient>
	
	
		<radialGradient
   id="SVGID_2_"
   cx="-322.6347"
   cy="-70.269501"
   r="27.658199"
   gradientTransform="matrix(0.498,0,0,0.498,172.2891,79.7388)"
   gradientUnits="userSpaceOnUse">
		<stop
   offset="0"
   style="stop-color:#08A960"
   id="stop55" />
		<stop
   offset="1"
   style="stop-color:#07914B"
   id="stop57" />
	</radialGradient>
	
	
		<radialGradient
   id="SVGID_3_"
   cx="-313.18311"
   cy="-109.9511"
   r="40.540001"
   gradientTransform="matrix(0.498,0,0,0.498,172.2891,79.7388)"
   gradientUnits="userSpaceOnUse">
		<stop
   offset="0"
   style="stop-color:#567FC0"
   id="stop62" />
		<stop
   offset="1"
   style="stop-color:#557FC0"
   id="stop64" />
	</radialGradient>
	
	
		<radialGradient
   id="SVGID_4_"
   cx="-301.11911"
   cy="-119.9164"
   r="33.058399"
   gradientTransform="matrix(0.498,0,0,0.498,172.2891,79.7388)"
   gradientUnits="userSpaceOnUse">
		<stop
   offset="0"
   style="stop-color:#E14C40"
   id="stop69" />
		<stop
   offset="1"
   style="stop-color:#CD392D"
   id="stop71" />
	</radialGradient>
	
<filter
   id="filter4319"
   style="color-interpolation-filters:sRGB"><feColorMatrix
     id="feColorMatrix4317"
     values="0.21 0.72 0.072 0 0 0.21 0.72 0.072 0 0 0.21 0.72 0.072 0 0 0 0 0 1 0 " /></filter>
	
	
	
	
		<radialGradient
   id="SVGID_5_"
   cx="-310.58301"
   cy="66.4552"
   r="20.113701"
   gradientTransform="matrix(0.498,0,0,0.498,172.2891,79.7388)"
   gradientUnits="userSpaceOnUse">
		<stop
   offset="0"
   style="stop-color:#CCCCCC"
   id="stop124" />
		<stop
   offset="1"
   style="stop-color:#C0C0C0"
   id="stop126" />
	</radialGradient>
	
	
		<radialGradient
   id="SVGID_6_"
   cx="-322.6347"
   cy="56.2407"
   r="27.658199"
   gradientTransform="matrix(0.498,0,0,0.498,172.2891,79.7388)"
   gradientUnits="userSpaceOnUse">
		<stop
   offset="0"
   style="stop-color:#A0A0A0"
   id="stop131" />
		<stop
   offset="1"
   style="stop-color:#7B7B7B"
   id="stop133" />
	</radialGradient>
	
	
		<radialGradient
   id="SVGID_7_"
   cx="-313.18311"
   cy="16.559"
   r="40.540001"
   gradientTransform="matrix(0.498,0,0,0.498,172.2891,79.7388)"
   gradientUnits="userSpaceOnUse">
		<stop
   offset="0"
   style="stop-color:#848484"
   id="stop138" />
		<stop
   offset="1"
   style="stop-color:#838383"
   id="stop140" />
	</radialGradient>
	
	
		<radialGradient
   id="SVGID_8_"
   cx="-301.11911"
   cy="6.5938001"
   r="33.058399"
   gradientTransform="matrix(0.498,0,0,0.498,172.2891,79.7388)"
   gradientUnits="userSpaceOnUse">
		<stop
   offset="0"
   style="stop-color:#626262"
   id="stop145" />
		<stop
   offset="1"
   style="stop-color:#474747"
   id="stop147" />
	</radialGradient>
	

	
	
	
	
		<radialGradient
   id="SVGID_9_"
   cx="-310.26501"
   cy="192.9653"
   r="20.113701"
   gradientTransform="matrix(0.498,0,0,0.498,172.2891,79.7388)"
   gradientUnits="userSpaceOnUse">
		<stop
   offset="0"
   style="stop-color:#FFCF4F"
   id="stop200" />
		<stop
   offset="1"
   style="stop-color:#F4C236"
   id="stop202" />
	</radialGradient>
	
	
		<radialGradient
   id="SVGID_10_"
   cx="-322.31671"
   cy="182.75079"
   r="27.658199"
   gradientTransform="matrix(0.498,0,0,0.498,172.2891,79.7388)"
   gradientUnits="userSpaceOnUse">
		<stop
   offset="0"
   style="stop-color:#08A960"
   id="stop207" />
		<stop
   offset="1"
   style="stop-color:#07914B"
   id="stop209" />
	</radialGradient>
	
	
		<radialGradient
   id="SVGID_11_"
   cx="-312.86511"
   cy="143.06911"
   r="40.540001"
   gradientTransform="matrix(0.498,0,0,0.498,172.2891,79.7388)"
   gradientUnits="userSpaceOnUse">
		<stop
   offset="0"
   style="stop-color:#567FC0"
   id="stop214" />
		<stop
   offset="1"
   style="stop-color:#557FC0"
   id="stop216" />
	</radialGradient>
	
	
		<radialGradient
   id="SVGID_12_"
   cx="-300.80109"
   cy="133.1039"
   r="33.058399"
   gradientTransform="matrix(0.498,0,0,0.498,172.2891,79.7388)"
   gradientUnits="userSpaceOnUse">
		<stop
   offset="0"
   style="stop-color:#E14C40"
   id="stop221" />
		<stop
   offset="1"
   style="stop-color:#CD392D"
   id="stop223" />
	</radialGradient>
	
</defs>




<g
   id="layer1"
   transform="matrix(0.34549417,0,0,0.34549417,-3.2094668,-27.144736)"
   inkscape:export-xdpi="637.62"
   inkscape:export-ydpi="637.62"><g
     id="g4622"><path
       inkscape:connector-curvature="0"
       style="opacity:1;fill:#b3862a;fill-opacity:1;fill-rule:evenodd;stroke:none;stroke-width:1;stroke-linecap:butt;stroke-linejoin:miter;stroke-miterlimit:4;stroke-dasharray:none;stroke-opacity:1"
       d="m 390.92969,542.69141 c -243.11568,128.53878 -119.5773,351.83319 0,410.62695 119.5773,-58.79376 243.11569,-282.08817 0,-410.62695 z"
       id="path4505"
       transform="scale(0.26458333)" /><path
       inkscape:connector-curvature="0"
       id="path4510"
       d="M 103.37659,143.68564 C 164.99161,182.38756 199.81328,124.5405 197.46596,89.363122 168.17512,69.741596 100.66725,70.974507 103.37659,143.68564 Z"
       style="opacity:1;fill:#778254;fill-opacity:1;fill-rule:evenodd;stroke:none;stroke-width:0.26458332;stroke-linecap:butt;stroke-linejoin:miter;stroke-miterlimit:4;stroke-dasharray:none;stroke-opacity:1" /><path
       inkscape:connector-curvature="0"
       style="opacity:1;fill:#8f9c67;fill-opacity:1;fill-rule:evenodd;stroke:none;stroke-width:0.24606249;stroke-linecap:butt;stroke-linejoin:miter;stroke-miterlimit:4;stroke-dasharray:none;stroke-opacity:1"
       d="m 106.67086,141.85552 c 57.30197,35.99279 89.68612,-17.80498 87.50312,-50.519939 -27.24049,-18.248016 -90.0228,-17.101409 -87.50312,50.519939 z"
       id="path4601" /><path
       inkscape:connector-curvature="0"
       id="path4514"
       d="M 103.49037,143.68564 C 106.19971,70.974508 38.691845,69.741595 9.4010047,89.363121 7.0536848,124.5405 41.875348,182.38756 103.49037,143.68564 Z"
       style="opacity:1;fill:#b3572f;fill-opacity:1;fill-rule:evenodd;stroke:none;stroke-width:0.26458332;stroke-linecap:butt;stroke-linejoin:miter;stroke-miterlimit:4;stroke-dasharray:none;stroke-opacity:1" /><path
       inkscape:connector-curvature="0"
       style="opacity:1;fill:#d17750;fill-opacity:1;fill-rule:evenodd;stroke:none;stroke-width:0.24606249;stroke-linecap:butt;stroke-linejoin:miter;stroke-miterlimit:4;stroke-dasharray:none;stroke-opacity:1"
       d="M 100.1961,141.85552 C 102.71579,74.234169 39.933474,73.08756 12.692992,91.33558 10.509985,124.05054 42.894131,177.8483 100.1961,141.85552 Z"
       id="path4597" /><path
       inkscape:connector-curvature="0"
       id="path4599"
       d="m 103.43348,147.3896 c -59.821655,31.62858 -29.423493,86.57296 0,101.0399 29.42349,-14.46694 59.82165,-69.41132 0,-101.0399 z"
       style="opacity:1;fill:#d6ab54;fill-opacity:1;fill-rule:evenodd;stroke:none;stroke-width:0.2460625;stroke-linecap:butt;stroke-linejoin:miter;stroke-miterlimit:4;stroke-dasharray:none;stroke-opacity:1" /><circle
       style="opacity:1;fill:#659ad2;fill-opacity:1;stroke:#004482;stroke-width:3;stroke-linecap:round;stroke-linejoin:round;stroke-miterlimit:4;stroke-dasharray:none;stroke-opacity:1"
       id="path4521"
       cx="103.43348"
       cy="143.5871"
       r="21.774761" /><path
       inkscape:connector-curvature="0"
       d="m 117.7794,129.24411 a 20.284042,20.284042 0 0 1 5.94106,14.34299 20.284042,20.284042 0 0 1 -5.94106,14.34298 L 103.43642,143.5871 Z"
       id="path4571"
       style="opacity:1;fill:#4283c8;fill-opacity:1;stroke:none;stroke-width:0.33113095;stroke-linecap:round;stroke-linejoin:round;stroke-miterlimit:4;stroke-dasharray:none;stroke-opacity:1" /><ellipse
       cy="143.5871"
       cx="103.43348"
       id="circle4549"
       style="opacity:1;fill:#0068c6;fill-opacity:1;stroke:none;stroke-width:0.26659989;stroke-linecap:round;stroke-linejoin:round;stroke-miterlimit:4;stroke-dasharray:none;stroke-opacity:1"
       rx="16.331072"
       ry="16.33107" /><circle
       r="12.021309"
       cy="143.5871"
       cx="103.43348"
       id="circle4547"
       style="opacity:1;fill:#ffffff;fill-opacity:1;stroke:none;stroke-width:0.1962443;stroke-linecap:round;stroke-linejoin:round;stroke-miterlimit:4;stroke-dasharray:none;stroke-opacity:1" /><circle
       cy="143.5871"
       cx="103.43348"
       id="circle4545"
       style="opacity:1;fill:#0068c6;fill-opacity:1;stroke:none;stroke-width:0.13514425;stroke-linecap:round;stroke-linejoin:round;stroke-miterlimit:4;stroke-dasharray:none;stroke-opacity:1"
       r="8.278512" /><path
       inkscape:connector-curvature="0"
       style="opacity:1;fill:#007be8;fill-opacity:1;stroke:none;stroke-width:0.26895684;stroke-linecap:round;stroke-linejoin:round;stroke-miterlimit:4;stroke-dasharray:none;stroke-opacity:1"
       id="path4573"
       d="m 115.08492,131.93719 a 16.475452,16.475452 0 0 1 4.82555,11.64991 16.475452,16.475452 0 0 1 -4.82555,11.6499 l -11.64991,-11.6499 z" /><path
       inkscape:connector-curvature="0"
       style="opacity:1;fill:#005bac;fill-opacity:1;stroke:none;stroke-width:0.19701558;stroke-linecap:round;stroke-linejoin:round;stroke-miterlimit:4;stroke-dasharray:none;stroke-opacity:1"
       id="circle4553"
       d="m 111.96713,135.05334 a 12.068556,12.068556 0 0 1 3.5348,8.53376 12.068556,12.068556 0 0 1 -3.5348,8.53375 l -8.53376,-8.53375 z" /><g
       id="g4561"
       transform="matrix(0.72972975,0,0,0.72972975,31.075767,38.795045)"><rect
         ry="0.34962791"
         y="140.04539"
         x="108.99699"
         height="6.992559"
         width="2.1771417"
         id="rect4555"
         style="opacity:1;fill:#ffffff;fill-opacity:1;stroke:#004482;stroke-width:0;stroke-linecap:butt;stroke-linejoin:miter;stroke-miterlimit:4;stroke-dasharray:none;stroke-opacity:1" /><rect
         transform="rotate(90)"
         style="opacity:1;fill:#ffffff;fill-opacity:1;stroke:#004482;stroke-width:0;stroke-linecap:butt;stroke-linejoin:miter;stroke-miterlimit:4;stroke-dasharray:none;stroke-opacity:1"
         id="rect4557"
         width="2.1771417"
         height="6.992559"
         x="142.45311"
         y="-113.58183"
         ry="0.34962791" /></g><g
       transform="matrix(0.72972975,0,0,0.72972975,36.839904,38.795045)"
       id="g4567"><rect
         style="opacity:1;fill:#ffffff;fill-opacity:1;stroke:#004482;stroke-width:0;stroke-linecap:butt;stroke-linejoin:miter;stroke-miterlimit:4;stroke-dasharray:none;stroke-opacity:1"
         id="rect4563"
         width="2.1771417"
         height="6.992559"
         x="108.99699"
         y="140.04539"
         ry="0.34962791" /><rect
         ry="0.34962791"
         y="-113.58183"
         x="142.45311"
         height="6.992559"
         width="2.1771417"
         id="rect4565"
         style="opacity:1;fill:#ffffff;fill-opacity:1;stroke:#004482;stroke-width:0;stroke-linecap:butt;stroke-linejoin:miter;stroke-miterlimit:4;stroke-dasharray:none;stroke-opacity:1"
         transform="rotate(90)" /></g></g></g><g
   transform="translate(-3.0236163,-0.9999999)"
   id="g5540"
   inkscape:export-xdpi="637.62"
   inkscape:export-ydpi="637.62"><g
     transform="matrix(1.236,0,0,1.236,14.433531,-6.9449864)"
     aria-label="Core C++"
     style="font-style:normal;font-variant:normal;font-weight:normal;font-stretch:normal;font-size:22.14783287px;line-height:125%;font-family:'GoodDog Plain';-inkscape-font-specification:'GoodDog Plain';text-align:start;letter-spacing:0px;word-spacing:0px;text-anchor:start;fill:#4e4e4e;fill-opacity:1;stroke:none;stroke-width:0.5536958px;stroke-linecap:butt;stroke-linejoin:miter;stroke-opacity:1"
     id="text193-9"><path
       d="m 56.164133,13.793856 q -1.524827,0 -2.379162,1.254468 -0.854336,1.243652 -0.854336,3.43897 0,4.563664 3.471414,4.563664 1.048994,0 2.033102,-0.291988 0.984107,-0.291988 1.97903,-0.702934 v 3.612 q -1.97903,0.875964 -4.47715,0.875964 -3.579557,0 -5.493701,-2.076359 -1.903329,-2.076359 -1.903329,-6.001976 0,-2.454862 0.919221,-4.314934 0.930036,-1.860072 2.660336,-2.854994 Q 53.860671,10.29 56.20739,10.29 q 2.563006,0 4.89891,1.11388 l -1.308539,3.36327 q -0.875964,-0.410946 -1.751928,-0.69212 -0.875964,-0.281174 -1.8817,-0.281174 z"
       style="font-style:normal;font-variant:normal;font-weight:normal;font-stretch:normal;font-family:'WLM Idea';-inkscape-font-specification:'WLM Idea';letter-spacing:-1px;fill:#4e4e4e;fill-opacity:1;stroke-width:0.5536958px"
       id="path171-0"
       inkscape:connector-curvature="0" /><path
       d="m 73.937882,20.174336 q 0,3.006395 -1.622156,4.693437 -1.611341,1.676227 -4.520407,1.676227 -2.790108,0 -4.444707,-1.719485 -1.643784,-1.719485 -1.643784,-4.650179 0,-2.995581 1.611341,-4.65018 1.622156,-1.665413 4.542036,-1.665413 1.806,0 3.19024,0.76782 1.384239,0.76782 2.130431,2.206132 0.757006,1.427497 0.757006,3.341641 z m -7.937749,0 q 0,1.578898 0.421761,2.411604 0.42176,0.821893 1.416682,0.821893 0.984108,0 1.38424,-0.821893 0.410946,-0.832706 0.410946,-2.411604 0,-1.568084 -0.410946,-2.368348 -0.410946,-0.800263 -1.405869,-0.800263 -0.973293,0 -1.395053,0.800263 -0.421761,0.789449 -0.421761,2.368348 z"
       style="font-style:normal;font-variant:normal;font-weight:normal;font-stretch:normal;font-family:'WLM Idea';-inkscape-font-specification:'WLM Idea';letter-spacing:-1px;fill:#4e4e4e;fill-opacity:1;stroke-width:0.5536958px"
       id="path173-0"
       inkscape:connector-curvature="0" /><path
       d="m 82.735701,13.858743 q 0.551533,0 1.048994,0.08652 l 0.237916,0.04326 -0.378503,3.990503 q -0.51909,-0.129772 -1.438311,-0.129772 -1.38424,0 -2.011473,0.638048 -0.627234,0.627233 -0.627234,1.816814 v 6.023605 H 75.338671 V 14.07503 l 3.806659,-0.01081 v 1.968215 h 0.205473 q 0.529904,-0.973293 1.470754,-1.568084 0.951665,-0.605604 1.914144,-0.605604 z"
       style="font-style:normal;font-variant:normal;font-weight:normal;font-stretch:normal;font-family:'WLM Idea';-inkscape-font-specification:'WLM Idea';letter-spacing:-1px;fill:#4e4e4e;fill-opacity:1;stroke-width:0.5536958px"
       id="path175-9"
       inkscape:connector-curvature="0" /><path
       d="m 90.203355,26.544 q -3.060467,0 -4.758324,-1.622155 -1.687042,-1.63297 -1.687042,-4.639366 0,-3.103724 1.568084,-4.758323 1.568084,-1.665413 4.47715,-1.665413 2.768479,0 4.271677,1.449125 1.514012,1.438312 1.514012,4.152719 v 1.881701 h -7.559246 q 0.04326,1.027365 0.746192,1.611341 0.713748,0.583976 1.935772,0.583976 1.11388,0 2.043916,-0.205473 0.940851,-0.216287 2.033102,-0.724563 v 3.038839 q -0.994922,0.508275 -2.05473,0.702934 Q 91.674109,26.544 90.203355,26.544 Z m -0.248731,-9.808635 q -0.746191,0 -1.254467,0.475833 -0.497461,0.465018 -0.583976,1.470754 h 3.633629 q -0.02163,-0.886778 -0.508276,-1.416682 -0.475832,-0.529905 -1.28691,-0.529905 z"
       style="font-style:normal;font-variant:normal;font-weight:normal;font-stretch:normal;font-family:'WLM Idea';-inkscape-font-specification:'WLM Idea';letter-spacing:-1px;fill:#4e4e4e;fill-opacity:1;stroke-width:0.5536958px"
       id="path177-1"
       inkscape:connector-curvature="0" /><path
       d="m 109.04265,13.793856 q -1.52483,0 -2.37916,1.254468 -0.85434,1.243652 -0.85434,3.43897 0,4.563664 3.47142,4.563664 1.04899,0 2.0331,-0.291988 0.98411,-0.291988 1.97903,-0.702934 v 3.612 q -1.97903,0.875964 -4.47715,0.875964 -3.57956,0 -5.4937,-2.076359 -1.90333,-2.076359 -1.90333,-6.001976 0,-2.454862 0.91922,-4.314934 0.93004,-1.860072 2.66033,-2.854994 1.74112,-1.005737 4.08784,-1.005737 2.563,0 4.89891,1.11388 l -1.30854,3.36327 q -0.87597,-0.410946 -1.75193,-0.69212 -0.87596,-0.281174 -1.8817,-0.281174 z"
       style="font-style:normal;font-variant:normal;font-weight:normal;font-stretch:normal;font-family:'WLM Idea';-inkscape-font-specification:'WLM Idea';letter-spacing:-1px;fill:#4e4e4e;fill-opacity:1;stroke-width:0.5536958px"
       id="path179-9"
       inkscape:connector-curvature="0" /><path
       d="m 118.4677,19.482216 h -4.02294 v -2.898252 h 4.02294 V 12.61509 h 2.90907 v 3.968874 h 4.02295 v 2.898252 h -4.02295 v 3.903988 h -2.90907 z"
       style="font-style:normal;font-variant:normal;font-weight:normal;font-stretch:normal;font-family:'WLM Idea';-inkscape-font-specification:'WLM Idea';letter-spacing:-1px;fill:#4e4e4e;fill-opacity:1;stroke-width:0.5536958px"
       id="path181-8"
       inkscape:connector-curvature="0" /><path
       d="m 130.01237,19.482216 h -4.02294 v -2.898252 h 4.02294 V 12.61509 h 2.90907 v 3.968874 h 4.02295 v 2.898252 h -4.02295 v 3.903988 h -2.90907 z"
       style="font-style:normal;font-variant:normal;font-weight:normal;font-stretch:normal;font-family:'WLM Idea';-inkscape-font-specification:'WLM Idea';letter-spacing:-1px;fill:#4e4e4e;fill-opacity:1;stroke-width:0.5536958px"
       id="path183-5"
       inkscape:connector-curvature="0" /></g><g
     id="text5436"
     style="font-style:normal;font-variant:normal;font-weight:normal;font-stretch:normal;font-size:26.51739502px;line-height:125%;font-family:'BN Capuccino';-inkscape-font-specification:'BN Capuccino';font-variant-ligatures:normal;font-variant-caps:normal;font-variant-numeric:normal;font-feature-settings:normal;text-align:center;letter-spacing:0px;word-spacing:0px;writing-mode:lr-tb;direction:rtl;text-anchor:middle;fill:#4e4e4e;fill-opacity:1;stroke:none;stroke-width:1.84148598px;stroke-linecap:butt;stroke-linejoin:miter;stroke-opacity:1"
     aria-label="2020"><path
       inkscape:connector-curvature="0"
       id="path5518"
       style="font-style:normal;font-variant:normal;font-weight:bold;font-stretch:normal;font-family:'Fira Code';-inkscape-font-specification:'Fira Code Bold';text-align:start;letter-spacing:-1.5px;text-anchor:start;fill:#4e4e4e;fill-opacity:1;stroke-width:1.84148598px"
       d="m 80.454759,33.296309 c -3.032502,0 -5.017907,1.264675 -6.432168,3.222883 l 2.63814,1.985405 c 0.979104,-1.332669 1.958208,-1.903813 3.386068,-1.903813 1.618241,0 2.529351,0.951907 2.529351,2.474957 0,2.243779 -1.971806,4.501158 -8.172797,10.498169 v 3.0461 h 12.52437 l 0.462354,-3.277278 h -8.050409 c 5.725038,-5.126696 7.615252,-7.588054 7.615252,-10.647754 0,-2.882916 -2.202983,-5.398669 -6.500161,-5.398669 z" /><path
       inkscape:connector-curvature="0"
       id="path5520"
       style="font-style:normal;font-variant:normal;font-weight:bold;font-stretch:normal;font-family:'Fira Code';-inkscape-font-specification:'Fira Code Bold';text-align:start;letter-spacing:-1.5px;text-anchor:start;fill:#4e4e4e;fill-opacity:1;stroke-width:1.84148598px"
       d="m 95.921908,33.296309 c -4.528356,0 -6.812931,3.65804 -6.812931,9.859031 0,6.228188 2.284575,9.927025 6.812931,9.927025 4.501162,0 6.812932,-3.698837 6.812932,-9.927025 0,-6.200991 -2.31177,-9.859031 -6.812932,-9.859031 z m 0,3.114094 c 0.924709,0 1.550247,0.217578 1.985405,0.91111 l -4.596349,9.614256 C 93.202175,45.983862 93.14778,44.746384 93.14778,43.15534 c 0,-4.88192 0.856716,-6.744937 2.774128,-6.744937 z m 0,13.571467 c -0.707131,0 -1.251077,-0.122388 -1.659037,-0.503151 l 4.337973,-8.96152 c 0.0408,0.747927 0.06799,1.618241 0.06799,2.638141 0,5.045105 -0.829519,6.82653 -2.74693,6.82653 z" /><path
       inkscape:connector-curvature="0"
       id="path5522"
       style="font-style:normal;font-variant:normal;font-weight:bold;font-stretch:normal;font-family:'Fira Code';-inkscape-font-specification:'Fira Code Bold';text-align:start;letter-spacing:-1.5px;text-anchor:start;fill:#4e4e4e;fill-opacity:1;stroke-width:1.84148598px"
       d="m 110.08358,33.296309 c -3.0325,0 -5.0179,1.264675 -6.43216,3.222883 l 2.63814,1.985405 c 0.9791,-1.332669 1.95821,-1.903813 3.38606,-1.903813 1.61825,0 2.52936,0.951907 2.52936,2.474957 0,2.243779 -1.97181,4.501158 -8.1728,10.498169 v 3.0461 h 12.52437 l 0.46235,-3.277278 h -8.05041 c 5.72504,-5.126696 7.61526,-7.588054 7.61526,-10.647754 0,-2.882916 -2.20299,-5.398669 -6.50017,-5.398669 z" /><path
       inkscape:connector-curvature="0"
       id="path5524"
       style="font-style:normal;font-variant:normal;font-weight:bold;font-stretch:normal;font-family:'Fira Code';-inkscape-font-specification:'Fira Code Bold';text-align:start;letter-spacing:-1.5px;text-anchor:start;fill:#4e4e4e;fill-opacity:1;stroke-width:1.84148598px"
       d="m 125.55073,33.296309 c -4.52835,0 -6.81293,3.65804 -6.81293,9.859031 0,6.228188 2.28458,9.927025 6.81293,9.927025 4.50116,0 6.81293,-3.698837 6.81293,-9.927025 0,-6.200991 -2.31177,-9.859031 -6.81293,-9.859031 z m 0,3.114094 c 0.92471,0 1.55025,0.217578 1.98541,0.91111 l -4.59635,9.614256 c -0.10879,-0.951907 -0.16319,-2.189385 -0.16319,-3.780429 0,-4.88192 0.85672,-6.744937 2.77413,-6.744937 z m 0,13.571467 c -0.70713,0 -1.25108,-0.122388 -1.65904,-0.503151 l 4.33798,-8.96152 c 0.0408,0.747927 0.068,1.618241 0.068,2.638141 0,5.045105 -0.82952,6.82653 -2.74693,6.82653 z" /></g></g></svg>